<svg width="25" height="24" viewBox="0 0 25 24" fill="none" xmlns="http://www.w3.org/2000/svg">
<path d="M20.75 6.1875H16.8125V6C16.8125 4.85625 16.3581 3.75935 15.5494 2.9506C14.7406 2.14185 13.6437 1.6875 12.5 1.6875C11.3563 1.6875 10.2594 2.14185 9.4506 2.9506C8.64185 3.75935 8.1875 4.85625 8.1875 6V6.1875H4.25C3.9019 6.1875 3.56806 6.32578 3.32192 6.57192C3.07578 6.81806 2.9375 7.1519 2.9375 7.5V18.75C2.9375 19.0981 3.07578 19.4319 3.32192 19.6781C3.56806 19.9242 3.9019 20.0625 4.25 20.0625H20.75C21.0981 20.0625 21.4319 19.9242 21.6781 19.6781C21.9242 19.4319 22.0625 19.0981 22.0625 18.75V7.5C22.0625 7.1519 21.9242 6.81806 21.6781 6.57192C21.4319 6.32578 21.0981 6.1875 20.75 6.1875ZM9.3125 6C9.3125 5.15462 9.64832 4.34387 10.2461 3.7461C10.8439 3.14832 11.6546 2.8125 12.5 2.8125C13.3454 2.8125 14.1561 3.14832 14.7539 3.7461C15.3517 4.34387 15.6875 5.15462 15.6875 6V6.1875H9.3125V6ZM20.9375 18.75C20.9375 18.7997 20.9177 18.8474 20.8826 18.8826C20.8474 18.9177 20.7997 18.9375 20.75 18.9375H4.25C4.20027 18.9375 4.15258 18.9177 4.11742 18.8826C4.08225 18.8474 4.0625 18.7997 4.0625 18.75V7.5C4.0625 7.45027 4.08225 7.40258 4.11742 7.36742C4.15258 7.33225 4.20027 7.3125 4.25 7.3125H8.1875V9C8.1875 9.14918 8.24676 9.29226 8.35225 9.39775C8.45774 9.50324 8.60082 9.5625 8.75 9.5625C8.89918 9.5625 9.04226 9.50324 9.14775 9.39775C9.25324 9.29226 9.3125 9.14918 9.3125 9V7.3125H15.6875V9C15.6875 9.14918 15.7468 9.29226 15.8523 9.39775C15.9577 9.50324 16.1008 9.5625 16.25 9.5625C16.3992 9.5625 16.5423 9.50324 16.6477 9.39775C16.7532 9.29226 16.8125 9.14918 16.8125 9V7.3125H20.75C20.7997 7.3125 20.8474 7.33225 20.8826 7.36742C20.9177 7.40258 20.9375 7.45027 20.9375 7.5V18.75Z" fill="white"/>
</svg>
