<svg width="25" height="24" viewBox="0 0 25 24" fill="none" xmlns="http://www.w3.org/2000/svg">
<path d="M20.7448 1.61281C21.3358 1.6734 21.8833 1.95104 22.2814 2.392C22.6795 2.83297 22.8999 3.40592 22.9 4.00001V20L22.8872 20.2448C22.8312 20.7941 22.5875 21.3072 22.1972 21.6978C21.807 22.0883 21.294 22.3324 20.7448 22.3888L20.5 22.4H4.49998L4.25518 22.3872C3.70591 22.3312 3.19274 22.0875 2.80219 21.6973C2.41164 21.307 2.16759 20.794 2.11118 20.2448L2.09998 20V4.00001C2.10005 3.40592 2.32046 2.83297 2.71857 2.392C3.11667 1.95104 3.66419 1.6734 4.25518 1.61281L4.49998 1.60001H20.5L20.7448 1.61281ZM4.49998 3.20001C4.2878 3.20001 4.08432 3.28429 3.93429 3.43432C3.78426 3.58435 3.69998 3.78783 3.69998 4.00001V20C3.69998 20.2122 3.78426 20.4157 3.93429 20.5657C4.08432 20.7157 4.2878 20.8 4.49998 20.8H20.5C20.7121 20.8 20.9156 20.7157 21.0657 20.5657C21.2157 20.4157 21.3 20.2122 21.3 20V4.00001C21.3 3.78783 21.2157 3.58435 21.0657 3.43432C20.9156 3.28429 20.7121 3.20001 20.5 3.20001H4.49998Z" fill="white"/>
</svg>
