<svg width="25" height="24" viewBox="0 0 25 24" fill="none" xmlns="http://www.w3.org/2000/svg">
<path d="M11.4444 16.6667L19.2778 8.83333L17.7222 7.27778L11.4444 13.5556L8.27778 10.3889L6.72222 11.9444L11.4444 16.6667ZM5.22222 22C4.61111 22 4.08815 21.7826 3.65333 21.3478C3.21852 20.913 3.00074 20.3896 3 19.7778V4.22222C3 3.61111 3.21778 3.08815 3.65333 2.65333C4.08889 2.21852 4.61185 2.00074 5.22222 2H20.7778C21.3889 2 21.9122 2.21778 22.3478 2.65333C22.7833 3.08889 23.0007 3.61185 23 4.22222V19.7778C23 20.3889 22.7826 20.9122 22.3478 21.3478C21.913 21.7833 21.3896 22.0007 20.7778 22H5.22222Z" fill="white"/>
</svg>
