<svg width="32" height="32" viewBox="0 0 32 32" fill="none" xmlns="http://www.w3.org/2000/svg">
<path fill-rule="evenodd" clip-rule="evenodd" d="M16 2.66667C8.6362 2.66667 2.66667 8.6362 2.66667 16C2.66667 23.3638 8.6362 29.3333 16 29.3333C23.3638 29.3333 29.3333 23.3638 29.3333 16C29.3333 8.6362 23.3638 2.66667 16 2.66667ZM0 16C0 7.16347 7.16347 0 16 0C24.8365 0 32 7.16347 32 16C32 24.8365 24.8365 32 16 32C7.16347 32 0 24.8365 0 16Z" fill="white"/>
<path fill-rule="evenodd" clip-rule="evenodd" d="M12.7889 30.3142C12.6599 30.1478 12.6599 28.6647 12.7889 25.8652C11.4076 25.9129 10.5349 25.817 10.1709 25.5776C9.62466 25.2185 9.07793 24.111 8.59273 23.3304C8.1076 22.5499 7.03086 22.4265 6.59603 22.252C6.16121 22.0775 6.05206 21.3662 7.7942 21.9042C9.53627 22.4421 9.62126 23.907 10.1709 24.2495C10.7204 24.592 12.0343 24.4422 12.6299 24.1678C13.2255 23.8934 13.1816 22.8717 13.2878 22.467C13.4221 22.0892 12.9489 22.0054 12.9385 22.0023C12.357 22.0023 9.3026 21.338 8.46367 18.3802C7.62467 15.4225 8.7054 13.4892 9.28193 12.6582C9.66633 12.1041 9.63233 10.9233 9.17993 9.11563C10.8223 8.90577 12.0898 9.4227 12.9823 10.6666C12.9831 10.6737 14.1523 9.9713 16.0002 9.9713C17.848 9.9713 18.5035 10.5434 19.0095 10.6666C19.5154 10.7897 19.92 8.48923 23.0445 9.11563C22.3922 10.3978 21.8459 11.9999 22.2629 12.6582C22.6799 13.3164 24.3163 15.4096 23.3111 18.3802C22.6409 20.3607 21.3235 21.568 19.3589 22.0023C19.1337 22.0742 19.021 22.1902 19.021 22.3502C19.021 22.5902 19.3256 22.6164 19.7643 23.741C20.0569 24.4906 20.078 26.6318 19.8277 30.1645C19.1937 30.3259 18.7005 30.4342 18.3481 30.4896C17.7231 30.5878 17.0446 30.6429 16.3779 30.6642C15.7113 30.6854 15.4797 30.683 14.558 30.5972C13.9436 30.54 13.3539 30.4457 12.7889 30.3142Z" fill="white"/>
</svg>
