<svg width="25" height="24" viewBox="0 0 25 24" fill="none" xmlns="http://www.w3.org/2000/svg">
<g clip-path="url(#clip0_99_2563)">
<path d="M18.125 1.50001C19.0078 1.50001 19.8359 1.66798 20.6094 2.00391C21.3828 2.33985 22.0586 2.79298 22.6367 3.36329C23.2148 3.9336 23.668 4.60938 23.9961 5.39063C24.3242 6.17188 24.4922 7.00001 24.5 7.87501C24.5 8.72657 24.3398 9.54298 24.0195 10.3242C23.6992 11.1055 23.2383 11.793 22.6367 12.3867L12.5 22.5117L2.36328 12.3867C1.76953 11.793 1.3125 11.1055 0.992188 10.3242C0.671875 9.54298 0.507812 8.72657 0.5 7.87501C0.5 7.00001 0.664062 6.17579 0.992188 5.40235C1.32031 4.62891 1.77734 3.95313 2.36328 3.37501C2.94922 2.79688 3.625 2.33985 4.39062 2.00391C5.15625 1.66798 5.98438 1.50001 6.875 1.50001C7.52344 1.50001 8.10156 1.57423 8.60938 1.72266C9.11719 1.8711 9.58594 2.07423 10.0156 2.33204C10.4453 2.58985 10.8594 2.90626 11.2578 3.28126C11.6562 3.65626 12.0703 4.0586 12.5 4.48829C12.9297 4.05079 13.3398 3.64845 13.7305 3.28126C14.1211 2.91407 14.5352 2.60157 14.9727 2.34376C15.4102 2.08595 15.8828 1.87891 16.3906 1.72266C16.8984 1.56641 17.4766 1.4922 18.125 1.50001ZM21.5703 11.3203C22.0312 10.8594 22.3828 10.332 22.625 9.73829C22.8672 9.14454 22.9883 8.52345 22.9883 7.87501C22.9883 7.19532 22.8633 6.56251 22.6133 5.97657C22.3633 5.39063 22.0195 4.87891 21.582 4.44141C21.1445 4.00391 20.6289 3.66407 20.0352 3.42188C19.4414 3.1797 18.8047 3.0547 18.125 3.04688C17.4688 3.04688 16.8867 3.14845 16.3789 3.35157C15.8711 3.5547 15.4023 3.82813 14.9727 4.17188C14.543 4.51563 14.1328 4.89454 13.7422 5.3086C13.3516 5.72266 12.9375 6.15626 12.5 6.60938C12.0781 6.18751 11.668 5.76173 11.2695 5.33204C10.8711 4.90235 10.457 4.51563 10.0273 4.17188C9.59766 3.82813 9.125 3.54688 8.60938 3.32813C8.09375 3.10938 7.51562 3.00001 6.875 3.00001C6.20312 3.00001 5.57031 3.12501 4.97656 3.37501C4.38281 3.62501 3.86719 3.97266 3.42969 4.41798C2.99219 4.86329 2.64453 5.38282 2.38672 5.97657C2.12891 6.57032 2 7.20313 2 7.87501C2 8.52345 2.12109 9.14454 2.36328 9.73829C2.60547 10.332 2.96094 10.8594 3.42969 11.3203L12.5 20.3906L21.5703 11.3203Z" fill="white"/>
</g>
<defs>
<clipPath id="clip0_99_2563">
<rect width="24" height="24" fill="white" transform="translate(0.5)"/>
</clipPath>
</defs>
</svg>
