<svg width="48" height="20" viewBox="0 0 48 20" fill="none" xmlns="http://www.w3.org/2000/svg">
<g clip-path="url(#clip0_6_116)">
<path d="M5.47059 1.09436H2.11765C1.37255 1.09436 1 1.49019 1 2.28186C1.3557 2.28186 1.69684 2.46953 1.94835 2.80358C2.19987 3.13763 2.34118 3.59069 2.34118 4.06311C2.34118 4.53553 2.19987 4.9886 1.94835 5.32264C1.69684 5.65669 1.3557 5.84436 1 5.84436V6.2398C1.3557 6.2398 1.69684 6.42746 1.94835 6.76151C2.19987 7.09556 2.34118 7.54863 2.34118 8.02105C2.34118 8.49346 2.19987 8.94653 1.94835 9.28058C1.69684 9.61463 1.3557 9.8023 1 9.8023V10.1977C1.3557 10.1977 1.69684 10.3854 1.94835 10.7195C2.19987 11.0535 2.34118 11.5066 2.34118 11.979C2.34118 12.4514 2.19987 12.9045 1.94835 13.2385C1.69684 13.5726 1.3557 13.7602 1 13.7602V14.1557C1.3557 14.1557 1.69684 14.3433 1.94835 14.6774C2.19987 15.0114 2.34118 15.4645 2.34118 15.9369C2.34118 16.4093 2.19987 16.8624 1.94835 17.1965C1.69684 17.5305 1.3557 17.7182 1 17.7182C1 18.5098 1.37255 18.9057 2.11765 18.9057H5.47059" stroke="#535353" stroke-width="1.11765"/>
<mask id="path-2-inside-1_6_116" fill="white">
<path d="M5.47058 0.5H42.5294V19.5H5.47058V0.5Z"/>
</mask>
<path d="M5.47058 0.5V1.61765H42.5294V0.5V-0.617647H5.47058V0.5ZM42.5294 19.5V18.3824H5.47058V19.5V20.6176H42.5294V19.5Z" fill="#535353" mask="url(#path-2-inside-1_6_116)"/>
<path d="M42.5294 1.09436H45.8824C46.6275 1.09436 47 1.49019 47 2.28186C46.6443 2.28186 46.3032 2.46953 46.0516 2.80358C45.8001 3.13763 45.6588 3.59069 45.6588 4.06311C45.6588 4.53553 45.8001 4.9886 46.0516 5.32264C46.3032 5.65669 46.6443 5.84436 47 5.84436V6.2398C46.6443 6.2398 46.3032 6.42746 46.0516 6.76151C45.8001 7.09556 45.6588 7.54863 45.6588 8.02105C45.6588 8.49346 45.8001 8.94653 46.0516 9.28058C46.3032 9.61463 46.6443 9.8023 47 9.8023V10.1977C46.6443 10.1977 46.3032 10.3854 46.0516 10.7195C45.8001 11.0535 45.6588 11.5066 45.6588 11.979C45.6588 12.4514 45.8001 12.9045 46.0516 13.2385C46.3032 13.5726 46.6443 13.7602 47 13.7602V14.1557C46.6443 14.1557 46.3032 14.3433 46.0516 14.6774C45.8001 15.0114 45.6588 15.4645 45.6588 15.9369C45.6588 16.4093 45.8001 16.8624 46.0516 17.1965C46.3032 17.5305 46.6443 17.7182 47 17.7182C47 18.5098 46.6275 18.9057 45.8824 18.9057H42.5294" stroke="#535353" stroke-width="1.11765"/>
</g>
<defs>
<clipPath id="clip0_6_116">
<rect width="48" height="19" fill="white" transform="translate(0 0.5)"/>
</clipPath>
</defs>
</svg>
