<svg width="28" height="32" viewBox="0 0 28 32" fill="none" xmlns="http://www.w3.org/2000/svg">
<path d="M20.7506 11.5224C22.7935 12.9949 25.2962 13.8614 27.9992 13.8614V8.61666C27.4876 8.61686 26.9774 8.56302 26.4769 8.456V12.5843C23.7742 12.5843 21.2718 11.718 19.2284 10.2456V20.9486C19.2284 26.3028 14.9239 30.6429 9.61436 30.6429C7.63325 30.6429 5.79182 30.039 4.26221 29.0032C6.00805 30.8033 8.44274 31.9198 11.1362 31.9198C16.4461 31.9198 20.7508 27.5798 20.7508 22.2253V11.5224H20.7506ZM22.6286 6.23112C21.5845 5.08099 20.8989 3.59465 20.7506 1.95139V1.27686H19.3081C19.6712 3.36535 20.9098 5.14963 22.6286 6.23112ZM7.62046 24.8946C7.03709 24.1235 6.72177 23.18 6.72325 22.2099C6.72325 19.7612 8.69211 17.7756 11.1212 17.7756C11.5738 17.7754 12.0238 17.8454 12.4553 17.9834V12.6214C11.9511 12.5518 11.4422 12.5221 10.9336 12.533V16.7065C10.502 16.5685 10.0518 16.4985 9.59894 16.4988C7.16994 16.4988 5.20119 18.4841 5.20119 20.9332C5.20119 22.665 6.18524 24.1642 7.62046 24.8946Z" fill="#FF004F"/>
<path d="M19.2285 10.2455C21.2719 11.7179 23.7741 12.5842 26.477 12.5842V8.45589C24.9683 8.13181 23.6327 7.33688 22.6285 6.23112C20.9097 5.14952 19.6712 3.36524 19.3081 1.27686H15.519V22.225C15.5104 24.6672 13.5449 26.6446 11.1211 26.6446C9.69286 26.6446 8.42389 25.9581 7.62031 24.8945C6.18531 24.1642 5.20115 22.6649 5.20115 20.9334C5.20115 18.4845 7.1699 16.4989 9.5989 16.4989C10.0643 16.4989 10.5128 16.572 10.9336 16.7066V12.5331C5.71729 12.6418 1.52222 16.9395 1.52222 22.2252C1.52222 24.8637 2.56686 27.2557 4.26239 29.0034C5.792 30.039 7.63333 30.6431 9.61454 30.6431C14.9242 30.6431 19.2286 26.3027 19.2286 20.9486L19.2285 10.2455Z" fill="white"/>
<path d="M26.477 8.45572V7.3397C25.1164 7.34169 23.7828 6.95751 22.6285 6.23106C23.6503 7.35902 24.9957 8.13686 26.477 8.45595M19.308 1.27669C19.2734 1.07714 19.2468 0.876257 19.2283 0.674538V0H13.9965V20.9484C13.9882 23.3903 12.0227 25.3677 9.59875 25.3677C8.91158 25.3688 8.23379 25.2067 7.62016 24.8947C8.42373 25.9581 9.6927 26.6444 11.1209 26.6444C13.5447 26.6444 15.5104 24.6673 15.5189 22.2251V1.2768L19.308 1.27669ZM10.9338 12.533V11.3447C10.4966 11.2844 10.0559 11.2543 9.61461 11.2544C4.30445 11.2544 0 15.5947 0 20.9484C0 24.305 1.6917 27.2631 4.26245 29.0031C2.56692 27.2555 1.52228 24.8634 1.52228 22.225C1.52228 16.9395 5.71725 12.6417 10.9338 12.533Z" fill="#00F2EA"/>
</svg>
