<svg
  width="32"
  height="32"
  viewBox="0 0 32 32"
  fill="none"
  xmlns="http://www.w3.org/2000/svg"
>
  <g transform="translate(16 16) scale(1.5) translate(-12 -16)">
    <path
      d="M11.75 18C14.51 18 16.75 15.76 16.75 13C16.75 10.24 14.51 8 11.75 8C8.99 8 6.75 10.24 6.75 13C6.75 15.76 8.99 18 11.75 18ZM11.75 9.5C13.68 9.5 15.25 11.07 15.25 13C15.25 14.93 13.68 16.5 11.75 16.5C9.82 16.5 8.25 14.93 8.25 13C8.25 11.07 9.82 9.5 11.75 9.5ZM18.5 22V24H17V22C17 21.31 16.44 20.75 15.75 20.75H7.75C7.06 20.75 6.5 21.31 6.5 22V24H5V22C5 20.48 6.23 19.25 7.75 19.25H15.75C17.27 19.25 18.5 20.48 18.5 22Z"
      fill="white"
    />
  </g>
</svg>
